HIERARCHY
ROOT Hips
{
	OFFSET 0.000000 121.760803 0.000000
	CHANNELS 6 Xposition Yposition Zposition Xrotation Yrotation Zrotation 
	JOINT Spine
	{
		OFFSET 0.072000 7.257294 -0.789700
		CHANNELS 3 Xrotation Yrotation Zrotation
		JOINT Spine1
		{
			OFFSET 0.000000 12.508769 -0.658067
			CHANNELS 3 Xrotation Yrotation Zrotation
			JOINT Spine1_split
			{
				OFFSET 0.000000 12.508769 -0.658067
				CHANNELS 3 Xrotation Yrotation Zrotation
				JOINT Spine2
				{
					OFFSET 0.000000 12.508769 -0.658067
					CHANNELS 3 Xrotation Yrotation Zrotation
					JOINT Neck
					{
						OFFSET 0.000000 14.033295 7.520400
						CHANNELS 3 Xrotation Yrotation Zrotation
						JOINT Head
						{
							OFFSET 0.000000 8.198502 5.703100
							CHANNELS 3 Xrotation Yrotation Zrotation
							JOINT HeadTop_End
							{
								OFFSET 0.000000 17.760803 13.332701
								CHANNELS 3 Xrotation Yrotation Zrotation
								End Site
								{
									OFFSET 0.000000 0.000000 0.000000
								}
							}
						}
					}
					JOINT LeftShoulder
					{
						OFFSET 6.292450 5.785301 -0.669000
						CHANNELS 3 Xrotation Yrotation Zrotation
						JOINT LeftShoulder_split
						{
							OFFSET 6.292450 5.785301 -0.669000
							CHANNELS 3 Xrotation Yrotation Zrotation
							JOINT LeftArm
							{
								OFFSET 13.907140 -6.093903 1.965100
								CHANNELS 3 Xrotation Yrotation Zrotation
								JOINT LeftForeArm
								{
									OFFSET 34.140198 0.000000 0.000000
									CHANNELS 3 Xrotation Yrotation Zrotation
									JOINT LeftHand
									{
										OFFSET 40.960209 0.000000 0.000000
										CHANNELS 3 Xrotation Yrotation Zrotation
										JOINT LeftHandThumb1
										{
											OFFSET 10.006996 -7.170425 9.573125
											CHANNELS 3 Xrotation Yrotation Zrotation
											JOINT LeftHandThumb2
											{
												OFFSET 1.835007 -1.059448 1.059443
												CHANNELS 3 Xrotation Yrotation Zrotation
												JOINT LeftHandThumb3
												{
													OFFSET 2.112267 -1.219513 1.219518
													CHANNELS 3 Xrotation Yrotation Zrotation
													JOINT LeftHandThumb4
													{
														OFFSET 4.843811 -2.796570 2.796576
														CHANNELS 3 Xrotation Yrotation Zrotation
														End Site
														{
															OFFSET 0.000000 0.000000 0.000000
														}
													}
												}
											}
										}
										JOINT LeftHandIndex1
										{
											OFFSET 18.389847 -0.922348 4.596882
											CHANNELS 3 Xrotation Yrotation Zrotation
											JOINT LeftHandIndex2
											{
												OFFSET 4.711273 0.000000 0.000000
												CHANNELS 3 Xrotation Yrotation Zrotation
												JOINT LeftHandIndex3
												{
													OFFSET 2.886131 0.000000 0.000000
													CHANNELS 3 Xrotation Yrotation Zrotation
													JOINT LeftHandIndex4
													{
														OFFSET 6.145912 0.000000 0.000000
														CHANNELS 3 Xrotation Yrotation Zrotation
														End Site
														{
															OFFSET 0.000000 0.000000 0.000000
														}
													}
												}
											}
										}
										JOINT LeftHandMiddle1
										{
											OFFSET 18.013008 0.000000 0.000000
											CHANNELS 3 Xrotation Yrotation Zrotation
											JOINT LeftHandMiddle2
											{
												OFFSET 4.946693 0.000000 0.000000
												CHANNELS 3 Xrotation Yrotation Zrotation
												JOINT LeftHandMiddle3
												{
													OFFSET 3.342232 0.000000 0.000000
													CHANNELS 3 Xrotation Yrotation Zrotation
													JOINT LeftHandMiddle4
													{
														OFFSET 4.461754 0.000000 0.000000
														CHANNELS 3 Xrotation Yrotation Zrotation
														End Site
														{
															OFFSET 0.000000 0.000000 0.000000
														}
													}
												}
											}
										}
										JOINT LeftHandRing1
										{
											OFFSET 15.849892 -0.102921 -4.126150
											CHANNELS 3 Xrotation Yrotation Zrotation
											JOINT LeftHandRing2
											{
												OFFSET 3.527054 0.000000 0.000000
												CHANNELS 3 Xrotation Yrotation Zrotation
												JOINT LeftHandRing3
												{
													OFFSET 2.961098 0.000000 0.000000
													CHANNELS 3 Xrotation Yrotation Zrotation
													JOINT LeftHandRing4
													{
														OFFSET 4.927200 0.000000 0.000000
														CHANNELS 3 Xrotation Yrotation Zrotation
														End Site
														{
															OFFSET 0.000000 0.000000 0.000000
														}
													}
												}
											}
										}
										JOINT LeftHandPinky1
										{
											OFFSET 12.791824 -0.832031 -6.799156
											CHANNELS 3 Xrotation Yrotation Zrotation
											JOINT LeftHandPinky2
											{
												OFFSET 3.327133 0.000000 0.000000
												CHANNELS 3 Xrotation Yrotation Zrotation
												JOINT LeftHandPinky3
												{
													OFFSET 3.014900 0.000000 0.000000
													CHANNELS 3 Xrotation Yrotation Zrotation
													JOINT LeftHandPinky4
													{
														OFFSET 5.847786 0.000000 0.000000
														CHANNELS 3 Xrotation Yrotation Zrotation
														End Site
														{
															OFFSET 0.000000 0.000000 0.000000
														}
													}
												}
											}
										}
									}
								}
							}
						}
					}
					JOINT RightShoulder
					{
						OFFSET -6.292450 5.785301 -0.669000
						CHANNELS 3 Xrotation Yrotation Zrotation
						JOINT RightShoulder_split
						{
							OFFSET -6.292450 5.785301 -0.669000
							CHANNELS 3 Xrotation Yrotation Zrotation
							JOINT RightArm
							{
								OFFSET -13.907140 -6.093903 1.965100
								CHANNELS 3 Xrotation Yrotation Zrotation
								JOINT RightForeArm
								{
									OFFSET -34.140198 0.000000 0.000000
									CHANNELS 3 Xrotation Yrotation Zrotation
									JOINT RightHand
									{
										OFFSET -40.960209 0.000000 0.000000
										CHANNELS 3 Xrotation Yrotation Zrotation
										JOINT RightHandThumb1
										{
											OFFSET -10.007050 -7.170456 9.573117
											CHANNELS 3 Xrotation Yrotation Zrotation
											JOINT RightHandThumb2
											{
												OFFSET -1.835007 -1.059448 1.059443
												CHANNELS 3 Xrotation Yrotation Zrotation
												JOINT RightHandThumb3
												{
													OFFSET -2.112267 -1.219513 1.219518
													CHANNELS 3 Xrotation Yrotation Zrotation
													JOINT RightHandThumb4
													{
														OFFSET -4.843834 -2.796585 2.796590
														CHANNELS 3 Xrotation Yrotation Zrotation
														End Site
														{
															OFFSET 0.000000 0.000000 0.000000
														}
													}
												}
											}
										}
										JOINT RightHandIndex1
										{
											OFFSET -18.389870 -0.922424 4.596786
											CHANNELS 3 Xrotation Yrotation Zrotation
											JOINT RightHandIndex2
											{
												OFFSET -4.711273 0.000000 0.000000
												CHANNELS 3 Xrotation Yrotation Zrotation
												JOINT RightHandIndex3
												{
													OFFSET -2.886131 0.000000 0.000000
													CHANNELS 3 Xrotation Yrotation Zrotation
													JOINT RightHandIndex4
													{
														OFFSET -6.145920 0.000000 0.000000
														CHANNELS 3 Xrotation Yrotation Zrotation
														End Site
														{
															OFFSET 0.000000 0.000000 0.000000
														}
													}
												}
											}
										}
										JOINT RightHandMiddle1
										{
											OFFSET -18.013008 0.000000 0.000000
											CHANNELS 3 Xrotation Yrotation Zrotation
											JOINT RightHandMiddle2
											{
												OFFSET -4.946693 0.000000 0.000000
												CHANNELS 3 Xrotation Yrotation Zrotation
												JOINT RightHandMiddle3
												{
													OFFSET -3.342232 0.000000 0.000000
													CHANNELS 3 Xrotation Yrotation Zrotation
													JOINT RightHandMiddle4
													{
														OFFSET -4.461754 0.000000 0.000000
														CHANNELS 3 Xrotation Yrotation Zrotation
														End Site
														{
															OFFSET 0.000000 0.000000 0.000000
														}
													}
												}
											}
										}
										JOINT RightHandRing1
										{
											OFFSET -15.849876 -0.102936 -4.126237
											CHANNELS 3 Xrotation Yrotation Zrotation
											JOINT RightHandRing2
											{
												OFFSET -3.527054 0.000000 0.000000
												CHANNELS 3 Xrotation Yrotation Zrotation
												JOINT RightHandRing3
												{
													OFFSET -2.961098 0.000000 0.000000
													CHANNELS 3 Xrotation Yrotation Zrotation
													JOINT RightHandRing4
													{
														OFFSET -4.927200 0.000000 0.000000
														CHANNELS 3 Xrotation Yrotation Zrotation
														End Site
														{
															OFFSET 0.000000 0.000000 0.000000
														}
													}
												}
											}
										}
										JOINT RightHandPinky1
										{
											OFFSET -12.791786 -0.832077 -6.799222
											CHANNELS 3 Xrotation Yrotation Zrotation
											JOINT RightHandPinky2
											{
												OFFSET -3.327133 0.000000 0.000000
												CHANNELS 3 Xrotation Yrotation Zrotation
												JOINT RightHandPinky3
												{
													OFFSET -3.014900 0.000000 0.000000
													CHANNELS 3 Xrotation Yrotation Zrotation
													JOINT RightHandPinky4
													{
														OFFSET -5.847786 0.000000 0.000000
														CHANNELS 3 Xrotation Yrotation Zrotation
														End Site
														{
															OFFSET 0.000000 0.000000 0.000000
														}
													}
												}
											}
										}
									}
								}
							}
						}
					}
				}
			}
		}
	}
	JOINT LeftUpLeg
	{
		OFFSET 13.026900 -6.336304 -1.092800
		CHANNELS 3 Xrotation Yrotation Zrotation
		JOINT LeftLeg
		{
			OFFSET 0.524474 -46.096886 9.782700
			CHANNELS 3 Xrotation Yrotation Zrotation
			JOINT LeftFoot
			{
				OFFSET -0.524474 -53.427422 -12.948200
				CHANNELS 3 Xrotation Yrotation Zrotation
				JOINT LeftToeBase
				{
					OFFSET 0.192200 -14.009700 16.364100
					CHANNELS 3 Xrotation Yrotation Zrotation
					JOINT LeftToe_End
					{
						OFFSET -1.784700 -0.561700 9.474800
						CHANNELS 3 Xrotation Yrotation Zrotation
						End Site
						{
							OFFSET 0.000000 0.000000 0.000000
						}
					}
				}
			}
		}
	}
	JOINT RightUpLeg
	{
		OFFSET -12.883000 -6.336304 -1.092800
		CHANNELS 3 Xrotation Yrotation Zrotation
		JOINT RightLeg
		{
			OFFSET -0.524587 -46.096825 9.782800
			CHANNELS 3 Xrotation Yrotation Zrotation
			JOINT RightFoot
			{
				OFFSET 0.524587 -53.427383 -12.948300
				CHANNELS 3 Xrotation Yrotation Zrotation
				JOINT RightToeBase
				{
					OFFSET -0.192200 -14.009700 16.364100
					CHANNELS 3 Xrotation Yrotation Zrotation
					JOINT RightToe_End
					{
						OFFSET 1.784700 -0.561700 9.474800
						CHANNELS 3 Xrotation Yrotation Zrotation
						End Site
						{
							OFFSET 0.000000 0.000000 0.000000
						}
					}
				}
			}
		}
	}
}
MOTION
Frames: 5
Frame Time: 0.016667
-0.283042 118.862709 1.065884 -5.478351 -12.004662 -1.818691 12.242739 1.572550 -0.887638 -3.993952 -8.493228 0.813504 0.000000 0.000000 0.000000 -5.969558 4.580064 -2.629903 11.255318 0.027616 0.080740 -1.984797 -0.580073 3.370286 0.000000 0.000000 -0.000000 4.233559 -14.085169 -0.897022 0.000000 0.000000 0.000000 5.919387 4.805982 -79.119388 2.144042 -12.162861 0.993675 -12.199781 -3.041352 9.443708 -3.785195 8.458465 12.351795 7.455432 11.608362 -1.288645 1.129272 8.847042 5.185752 -0.000001 -0.000000 -0.000002 2.384619 3.620112 -6.815648 0.018934 0.237211 -17.103733 0.036629 0.180345 -12.954499 -0.000001 -0.000000 -0.000000 -1.935800 5.644688 -11.386961 0.101769 0.660608 -24.767596 0.036784 0.028175 -9.474928 -0.000002 -0.000000 -0.000001 -4.873191 10.020066 -7.875439 -0.044692 0.326926 -30.086102 0.078006 0.706496 -12.602627 -0.000000 0.000000 0.000000 -6.437508 11.282614 -19.771002 0.059311 0.243045 -30.857579 0.012400 0.131908 -11.459635 -0.000000 0.000000 -0.000002 3.456615 7.912193 4.381424 0.000000 0.000000 0.000000 4.870321 0.880828 78.811825 0.216084 17.510303 -0.089628 -4.831394 -4.161986 -10.247034 -0.464248 -8.992502 -6.084806 7.446393 -11.613885 1.293119 1.119996 -8.851358 -5.181769 0.000001 -0.000001 -0.000001 2.362524 -3.634250 8.333205 0.012279 -0.255083 18.622485 0.037632 -0.182846 14.473391 0.000000 0.000000 0.000003 -1.983657 -5.671256 13.530161 0.138086 -0.655758 26.914200 0.033814 -0.044597 11.621551 0.000002 0.000001 -0.000001 -4.977982 -10.100805 10.695753 -0.008995 -0.341854 32.924012 0.109186 -0.701109 15.434986 -0.000001 -0.000000 0.000003 -6.474083 -11.323141 23.226039 0.083645 -0.233779 34.318002 0.018896 -0.139644 14.919966 -0.000001 -0.000001 0.000006 0.657904 21.308124 1.661119 12.107344 4.365695 1.236710 -8.026952 -1.151049 -1.154954 -0.077377 -0.000317 -0.084732 0.000000 0.000001 0.000000 -4.461918 -8.910246 -11.562546 6.748155 -13.475588 0.383503 5.671937 -0.404326 9.117986 -0.002834 0.000032 0.000576 0.000000 -0.000002 -0.000000 
-0.352626 118.749825 0.969761 -5.457179 -11.829164 -1.810306 12.266503 1.583962 -0.990815 -4.009648 -8.492098 0.838626 0.000000 0.000000 0.000000 -5.990857 4.581323 -2.607014 11.197290 -0.037179 0.154591 -1.933324 -0.649536 3.461112 0.000000 0.000002 -0.000000 4.134858 -13.909766 -1.027313 0.000000 0.000000 0.000000 5.833304 4.715160 -78.638311 2.464682 -12.082305 0.839263 -11.971001 -2.884890 9.023003 -3.764264 8.410108 12.319215 7.372635 11.506808 -1.247435 1.230930 9.019812 5.174667 -0.000000 -0.000003 -0.000002 2.321423 3.520237 -6.821868 0.019658 0.237893 -17.855228 0.039178 0.180595 -13.622954 0.000001 -0.000000 -0.000001 -1.898742 5.569504 -11.597265 0.101641 0.651975 -24.994633 0.039764 0.032090 -10.231505 0.000001 0.000000 0.000000 -4.774474 9.989805 -8.066137 -0.044684 0.327387 -30.156095 0.079751 0.695939 -13.012787 0.000001 0.000000 0.000003 -6.325152 11.199821 -19.848023 0.058974 0.242585 -30.742579 0.013120 0.133174 -11.730728 0.000000 0.000000 -0.000001 3.381225 7.803407 4.537099 0.000000 0.000000 0.000000 5.024064 1.620401 78.436123 0.420645 17.682395 -0.003084 -5.282810 -3.964285 -10.374967 -0.507297 -9.279072 -6.121835 7.209204 -11.240103 1.219506 1.088823 -8.566725 -5.010567 0.000000 0.000000 0.000001 2.356835 -3.533949 8.694490 0.011841 -0.249328 18.450696 0.037201 -0.177209 14.426910 -0.000001 -0.000001 -0.000002 -1.904671 -5.449618 13.745687 0.133093 -0.634496 26.482319 0.034000 -0.044874 11.674579 0.000000 -0.000000 0.000002 -4.780969 -9.668431 11.141320 -0.009695 -0.329678 32.368840 0.105743 -0.678802 15.435034 -0.000001 0.000001 -0.000002 -6.359783 -10.736978 23.396432 0.076959 -0.231841 33.790691 0.019103 -0.135255 15.009568 0.000001 0.000002 -0.000000 0.294969 21.310684 1.818225 12.545171 4.158996 1.219902 -8.144639 -1.135373 -1.136687 -0.077472 -0.000317 -0.084538 0.000000 -0.000000 0.000000 -4.722438 -8.856990 -11.561986 7.212436 -13.462252 0.345231 5.454393 -0.405650 9.183772 -0.002835 0.000036 0.000582 0.000000 0.000002 0.000000 
-0.418657 118.636322 0.863683 -5.399621 -11.638960 -1.821491 12.244366 1.588559 -1.072021 -4.018683 -8.493300 0.862145 0.000000 0.000000 0.000000 -6.005033 4.580156 -2.583796 11.160980 -0.091042 0.230803 -1.910302 -0.714432 3.577409 -0.000001 -0.000001 0.000000 4.037699 -13.737897 -1.155442 0.000000 0.000000 0.000000 5.705736 4.632386 -78.161488 2.775911 -11.939533 0.681351 -11.739152 -2.759559 8.593612 -3.751104 8.349391 12.295321 7.298342 11.419267 -1.207314 1.342459 9.223519 5.172545 0.000001 -0.000002 0.000002 2.257671 3.427915 -6.819787 0.023235 0.238452 -18.684490 0.041954 0.180817 -14.354464 -0.000000 -0.000000 0.000000 -1.862102 5.502067 -11.816821 0.101813 0.643602 -25.268206 0.043042 0.031625 -11.047259 0.000001 -0.000000 -0.000001 -4.681532 9.963954 -8.246966 -0.044636 0.328108 -30.263363 0.081933 0.685925 -13.453914 -0.000001 -0.000001 -0.000000 -6.218979 11.123551 -19.917506 0.058692 0.242168 -30.644091 0.013807 0.134459 -12.012094 0.000000 0.000000 0.000002 3.306759 7.693741 4.690968 0.000000 0.000000 0.000000 5.157377 2.358697 78.058933 0.618395 17.828505 0.086480 -5.725247 -3.745777 -10.502802 -0.553297 -9.581182 -6.161862 6.959098 -10.845806 1.144357 1.055503 -8.266172 -4.830217 0.000000 -0.000001 -0.000001 2.350870 -3.428247 9.075731 0.011337 -0.243168 18.269294 0.036735 -0.171057 14.378084 -0.000000 -0.000000 -0.000001 -1.823166 -5.215158 13.972274 0.127792 -0.612062 26.026627 0.034239 -0.045133 11.730572 -0.000000 0.000001 -0.000001 -4.580367 -9.209584 11.607397 -0.010357 -0.316794 31.782762 0.102023 -0.655243 15.435136 -0.000001 -0.000001 0.000001 -6.242230 -10.117662 23.571480 0.069919 -0.225111 33.234334 0.019293 -0.130615 15.104050 -0.000000 -0.000000 0.000001 -0.138536 21.341706 2.009272 13.003793 3.874377 1.198134 -8.261440 -1.089208 -1.093726 -0.077583 -0.000315 -0.084322 0.000000 0.000001 0.000000 -4.998441 -8.807931 -11.528085 7.643394 -13.493670 0.290527 5.257501 -0.384913 9.255887 -0.002812 0.000000 0.000571 0.000000 0.000000 -0.000000 
-0.453057 118.503967 0.717582 -5.269097 -11.407390 -1.877677 12.142433 1.574321 -1.086039 -4.021896 -8.515539 0.871766 0.000000 0.000000 0.000000 -6.003062 4.558939 -2.572199 11.158115 -0.114069 0.288823 -1.943716 -0.770573 3.768100 -0.000000 -0.000001 0.000000 3.942080 -13.569999 -1.281383 0.000000 0.000000 0.000000 5.619342 4.574183 -77.694727 3.051944 -11.904669 0.522647 -11.509791 -2.582429 8.194519 -3.744029 8.279134 12.277957 7.230601 11.342596 -1.167951 1.461499 9.451083 5.177021 0.000002 0.000001 0.000001 2.193384 3.341376 -6.811402 0.027122 0.239054 -19.573116 0.044899 0.181016 -15.134413 -0.000000 -0.000002 -0.000001 -1.826022 5.440494 -12.043532 0.101619 0.635394 -25.577296 0.043477 0.031133 -11.908568 0.000001 -0.000001 -0.000001 -4.593011 9.941413 -8.420099 -0.044569 0.329004 -30.399444 0.084345 0.676276 -13.918815 0.000001 -0.000000 -0.000001 -6.117683 11.052289 -19.980935 0.058444 0.241811 -30.558461 0.014574 0.135785 -12.301484 -0.000000 0.000000 0.000000 3.233184 7.582012 4.843430 0.000000 0.000000 0.000000 5.215428 3.086638 77.680561 0.821297 17.890996 0.180002 -6.140629 -3.482968 -10.626927 -0.602027 -9.897170 -6.204839 6.697313 -10.433169 1.068104 1.020222 -7.951272 -4.641825 -0.000000 -0.000001 -0.000001 2.344623 -3.317798 9.474897 0.008471 -0.236764 18.079541 0.036255 -0.164564 14.326858 -0.000000 0.000000 -0.000001 -1.739760 -4.969232 14.208435 0.122233 -0.588447 25.549619 0.034457 -0.045405 11.789172 0.000000 0.000000 -0.000002 -4.378362 -8.726578 12.090930 -0.011007 -0.303305 31.169510 0.098165 -0.630563 15.435212 -0.000001 -0.000000 -0.000000 -6.122425 -9.468420 23.749515 0.062740 -0.217966 32.652078 0.019492 -0.125446 15.202987 0.000001 -0.000000 -0.000001 -0.766816 21.395231 2.279240 13.575171 3.492706 1.170324 -8.400141 -1.017221 -1.002945 -0.077669 -0.000337 -0.084090 0.000000 -0.000001 0.000000 -5.347365 -8.754955 -11.447204 8.064562 -13.593121 0.230671 5.094145 -0.344127 9.337926 -0.002820 0.000072 0.000578 0.000000 0.000000 0.000000 
-0.472945 118.366661 0.555984 -5.113355 -11.163238 -1.950448 12.013231 1.553230 -1.074392 -4.022316 -8.545086 0.875560 0.000000 0.000000 0.000000 -5.995742 4.530749 -2.565628 11.168336 -0.150683 0.337645 -2.005923 -0.852422 3.997330 0.000000 -0.000000 -0.000000 3.847713 -13.403304 -1.405390 0.000000 0.000000 0.000000 5.532362 4.526075 -77.236981 3.314025 -11.916844 0.364350 -11.280407 -2.382524 7.805456 -3.741368 8.202130 12.265799 7.167523 11.273415 -1.129236 1.585740 9.695407 5.185951 -0.000001 0.000001 0.000002 2.128885 3.258849 -6.798530 0.031107 0.239672 -20.503681 0.048019 0.181165 -15.948217 -0.000001 -0.000001 -0.000003 -1.790224 5.382972 -12.275177 0.101232 0.627282 -25.911549 0.043952 0.030645 -12.801793 0.000002 -0.000002 -0.000001 -4.507506 9.921108 -8.587972 -0.043606 0.330008 -30.555514 0.086997 0.666840 -14.400313 -0.000001 0.000000 -0.000003 -6.019648 10.984435 -20.040212 0.058225 0.241500 -30.481813 0.015324 0.135744 -12.596469 -0.000001 0.000001 -0.000002 3.160101 7.466490 4.995546 0.000000 0.000000 0.000000 5.215059 3.771394 77.295011 1.040020 17.904625 0.279775 -6.510698 -3.215572 -10.744613 -0.653336 -10.225392 -6.250772 6.425213 -10.004300 0.991567 0.983031 -7.623597 -4.446369 0.000000 0.000002 -0.000001 2.338195 -3.203148 9.889836 0.005124 -0.228733 17.882298 0.035733 -0.157784 14.273698 -0.000000 0.000000 -0.000001 -1.655205 -4.712929 14.452948 0.116467 -0.563825 25.053815 0.034670 -0.045689 11.850073 0.000001 -0.000000 -0.000000 -4.176953 -8.221545 12.589118 -0.011649 -0.289361 30.531905 0.094085 -0.604410 15.435331 -0.000001 -0.000001 -0.000001 -6.001264 -8.792427 23.928977 0.055365 -0.210452 32.046783 0.019700 -0.120036 15.305865 0.000000 -0.000002 0.000003 -1.458333 21.474152 2.571598 14.173845 3.039935 1.138222 -8.539770 -0.918321 -0.879994 -0.078406 -0.000331 -0.082517 0.000000 -0.000000 -0.000000 -5.715846 -8.702871 -11.353082 8.470013 -13.724866 0.168670 4.949123 -0.286151 9.425795 -0.002823 0.000007 0.000566 -0.000000 0.000000 0.000000 
